<?xml version="1.0" standalone="no"?>
<!DOCTYPE svg PUBLIC "-//W3C//DTD SVG 20010904//EN"
 "http://www.w3.org/TR/2001/REC-SVG-20010904/DTD/svg10.dtd">
<svg version="1.0" xmlns="http://www.w3.org/2000/svg"
 width="1024.000000pt" height="1024.000000pt" viewBox="0 0 1024.000000 1024.000000"
 preserveAspectRatio="xMidYMid meet">
<metadata>
Created by potrace 1.14, written by Peter Selinger 2001-2017
</metadata>
<g transform="translate(0.000000,1024.000000) scale(0.100000,-0.100000)"
fill="#000000" stroke="none">
<path d="M5075 9964 c-50 -5 -302 -40 -385 -54 -161 -28 -398 -112 -595 -212
-119 -61 -306 -176 -319 -197 -4 -6 -13 -11 -20 -11 -10 0 -15 34 -19 128 -4
71 -10 150 -13 175 l-7 47 -36 -6 c-58 -9 -203 -44 -236 -56 -16 -6 -77 -34
-135 -61 -90 -44 -117 -63 -185 -131 -95 -96 -155 -194 -196 -319 -41 -125
-51 -210 -53 -442 -1 -135 -4 -200 -12 -200 -6 0 -43 29 -83 65 -82 73 -171
139 -187 140 -14 0 -15 -2 -66 -150 -158 -458 -100 -1003 162 -1518 44 -86 98
-190 121 -230 l41 -73 -34 -57 c-67 -111 -88 -182 -88 -297 0 -228 120 -406
373 -549 l47 -27 0 -358 0 -358 95 -159 c342 -565 736 -946 1195 -1156 88 -40
105 -51 105 -70 l0 -23 -355 -1 c-291 0 -372 -4 -450 -18 -195 -35 -338 -82
-475 -155 -83 -44 -90 -49 -88 -77 2 -43 52 -146 74 -151 15 -4 19 -15 19 -48
0 -23 7 -56 16 -74 18 -36 123 -310 161 -421 14 -41 32 -82 40 -92 13 -14 8
-46 -37 -265 -29 -136 -55 -255 -58 -263 -6 -17 -11 16 -42 245 -23 171 -53
366 -71 453 -16 80 -35 67 -42 -30 -7 -84 -23 -226 -58 -508 -10 -85 -23 -201
-29 -256 l-9 -102 71 -143 c39 -79 75 -146 80 -149 4 -3 -3 -71 -16 -150 -14
-80 -35 -218 -47 -307 l-23 -161 -23 76 c-31 108 -163 491 -208 602 l-37 93
26 66 c60 156 97 340 66 329 -6 -2 -26 -39 -44 -83 -42 -104 -84 -185 -95
-185 -12 0 -61 131 -71 191 -8 50 -1 141 19 238 l6 35 48 -67 c36 -50 54 -67
72 -67 27 0 21 -16 101 260 157 545 169 594 155 639 -6 20 -25 90 -41 156 -17
66 -35 124 -39 128 -11 11 -139 -109 -206 -193 -64 -80 -155 -255 -191 -370
-15 -47 -33 -92 -40 -100 -14 -16 -33 -406 -35 -700 l-1 -145 -25 55 c-14 30
-48 105 -75 165 -27 61 -56 121 -63 135 -44 82 -89 159 -92 156 -2 -1 11 -43
28 -92 16 -49 34 -107 39 -129 4 -22 22 -92 38 -155 17 -63 45 -190 62 -282
l31 -167 -37 -86 c-20 -47 -40 -88 -45 -90 -4 -3 -33 34 -64 81 -31 47 -59 84
-62 81 -3 -3 13 -52 35 -109 61 -156 61 -137 -6 -315 -33 -87 -65 -175 -72
-195 -6 -21 -15 -38 -18 -38 -4 0 -15 27 -26 60 -21 67 -33 76 -38 27 -3 -29
-4 -28 -12 16 -7 42 -3 66 32 185 73 244 67 279 -18 102 -30 -60 -57 -110 -61
-110 -4 0 -13 17 -20 38 -6 20 -29 78 -51 128 l-38 91 51 134 c59 155 125 360
134 415 4 22 13 72 22 112 8 40 13 75 11 77 -2 2 -44 -78 -93 -178 -107 -219
-196 -387 -205 -387 -19 0 -41 84 -54 207 -37 340 -50 547 -40 636 9 84 4 141
-10 107 -21 -52 -51 -284 -76 -595 -38 -475 -61 -695 -71 -695 -5 0 -20 39
-34 88 -15 48 -35 113 -45 144 -10 31 -16 66 -13 78 3 13 -1 26 -10 33 -9 7
-26 48 -38 92 l-22 80 17 180 c10 99 26 245 37 324 35 267 23 266 -56 -9 -66
-229 -64 -224 -70 -218 -3 2 -27 91 -54 197 -47 187 -55 210 -67 199 -7 -7 23
-406 41 -556 l14 -112 -39 -158 c-21 -86 -41 -166 -44 -177 -12 -46 5 267 19
345 8 47 15 92 15 99 0 24 -18 0 -34 -44 -13 -37 -14 -31 -10 95 2 74 6 254 9
400 3 173 10 298 20 359 9 52 14 99 12 105 -11 30 -95 -302 -126 -494 -30
-185 -60 -366 -74 -445 l-13 -70 -13 80 c-8 44 -18 84 -22 89 -5 6 -9 -41 -9
-107 0 -64 -4 -117 -8 -117 -4 0 -16 47 -25 105 -10 58 -25 129 -33 157 -8 29
-32 121 -54 203 -54 209 -119 420 -126 412 -2 -2 5 -82 16 -178 22 -186 43
-575 36 -649 -2 -25 -5 -67 -6 -95 l-2 -50 -15 43 c-17 48 -39 58 -30 13 3
-16 13 -84 22 -151 15 -112 15 -136 0 -288 -18 -185 -41 -351 -49 -360 -3 -3
-6 4 -6 15 0 24 -58 287 -106 478 -94 373 -238 787 -381 1096 -25 55 -47 98
-49 97 -1 -2 2 -21 7 -43 74 -304 75 -312 68 -465 -4 -80 -8 -179 -9 -220 -2
-95 -12 -72 -35 78 -15 94 -27 136 -37 120 -1 -2 -4 -158 -7 -348 l-6 -345
-43 77 c-24 43 -48 80 -54 84 -21 13 -68 99 -68 126 0 16 -6 28 -12 28 -7 1
-44 49 -83 108 l-70 107 -3 -124 -3 -125 51 -124 51 -124 -6 -110 c-3 -60 -10
-120 -15 -132 -4 -12 -11 -48 -15 -79 -4 -31 -10 -57 -14 -57 -4 0 -17 17 -29
37 l-22 38 0 -612 c0 -336 3 -618 6 -627 6 -15 185 -16 1936 -16 1833 0 1929
1 1924 18 -26 90 -27 105 -12 170 27 122 56 363 76 651 11 157 23 287 26 290
7 7 -3 -788 -12 -982 l-7 -147 3146 0 3147 0 5 22 c3 13 4 457 3 988 l-3 965
-23 -90 c-13 -49 -33 -130 -46 -180 l-24 -90 -1 85 c0 47 6 130 15 185 27 175
28 178 17 172 -5 -3 -16 -24 -23 -47 -20 -60 -29 -58 -24 7 2 32 9 231 14 443
6 212 14 396 17 410 4 17 2 22 -5 15 -23 -22 -85 -309 -117 -540 -8 -60 -24
-157 -35 -215 -10 -58 -22 -122 -25 -144 -8 -51 -21 -36 -39 44 -12 55 -14 59
-15 28 -2 -81 -20 -38 -70 165 -71 294 -71 291 -83 279 -10 -10 9 -310 32
-497 35 -286 41 -347 37 -351 -2 -2 -15 37 -28 87 -46 172 -54 90 -22 -211 9
-85 17 -166 17 -180 0 -45 -70 -449 -83 -485 -9 -21 -8 -28 -62 385 -17 129
-33 237 -36 240 -10 11 -21 -29 -33 -126 -7 -57 -16 -104 -19 -104 -4 0 -13
64 -20 143 -17 182 -48 396 -60 411 -5 6 -12 40 -16 76 -7 69 -46 260 -70 345
-7 28 -21 79 -30 115 -8 36 -34 125 -57 197 -42 135 -66 174 -54 86 15 -109
36 -326 42 -443 7 -142 -3 -206 -35 -206 -16 0 -20 13 -30 86 -12 87 -37 225
-48 270 -9 32 -20 -66 -23 -195 -1 -49 -5 -110 -9 -135 -6 -43 -7 -40 -24 65
-21 131 -25 141 -37 129 -5 -5 -10 -124 -11 -274 0 -146 -5 -274 -9 -285 -7
-16 -9 -16 -9 -4 -1 28 -81 292 -97 322 -9 15 -19 40 -24 55 -5 15 -34 92 -65
172 -30 80 -71 187 -90 239 -19 52 -41 101 -49 110 -7 9 -17 26 -21 39 -4 13
-9 22 -11 19 -5 -5 33 -199 47 -235 33 -88 141 -734 124 -750 -8 -8 -7 -9 -78
139 -36 75 -81 161 -99 190 -24 40 -34 70 -40 123 -4 39 -12 72 -18 74 -18 6
-13 61 35 345 17 104 -70 -111 -129 -318 -32 -110 -65 -227 -75 -260 l-16 -59
-60 84 c-50 72 -60 93 -62 135 -2 28 -8 84 -14 125 -6 41 -14 104 -19 140 -5
36 -14 96 -21 135 l-12 70 -13 -45 c-7 -25 -17 -101 -23 -169 -7 -69 -13 -126
-15 -128 -2 -2 -28 27 -58 64 -38 47 -58 83 -67 118 -24 103 -54 195 -62 195
-5 0 -9 -34 -9 -76 l0 -76 -34 21 c-41 26 -54 27 -33 3 8 -9 20 -30 26 -45 10
-25 4 -44 -55 -169 -36 -77 -74 -164 -85 -192 -32 -86 -33 -86 -80 -41 -43 42
-43 37 4 -32 l29 -42 -28 -85 c-16 -47 -32 -86 -36 -86 -15 0 -40 107 -48 200
-4 52 -8 87 -8 77 -1 -10 -8 -17 -14 -15 -15 5 -20 22 -42 133 -8 44 -23 105
-32 135 -12 39 -16 86 -15 165 1 61 -1 160 -5 220 l-7 110 -19 -82 c-11 -46
-24 -83 -28 -83 -11 0 -30 65 -30 105 -1 37 -46 285 -54 293 -10 9 -7 -230 5
-467 11 -199 10 -227 -4 -255 -8 -17 -18 -51 -21 -76 -2 -25 -25 -137 -49
-250 -34 -156 -46 -198 -50 -175 -12 53 -47 357 -54 458 -9 137 -24 129 -39
-21 -3 -40 -10 -75 -14 -77 -4 -3 -20 30 -35 73 -46 129 -116 292 -126 292
-11 0 -4 -53 22 -170 10 -47 23 -112 29 -145 5 -33 16 -98 24 -145 16 -96 31
-258 23 -250 -10 10 -56 218 -76 350 -12 74 -26 159 -31 189 -6 30 -10 72 -10
93 0 21 -4 38 -9 38 -12 0 -24 -159 -25 -322 -1 -71 -2 -128 -3 -128 -6 0 -83
161 -117 243 -39 96 -49 189 -22 211 37 29 146 542 177 831 l13 120 8 -105 c5
-58 11 -181 16 -274 5 -120 11 -171 19 -173 15 -5 19 3 75 167 l43 125 7 -45
c3 -25 7 -67 7 -93 1 -34 6 -49 17 -54 25 -9 33 7 56 121 l21 109 -23 44 c-87
163 -254 320 -445 415 -92 46 -244 98 -331 112 l-31 5 -8 -244 c-4 -134 -10
-271 -14 -305 -6 -51 -2 -86 26 -208 19 -81 45 -201 59 -267 28 -129 46 -182
69 -199 13 -10 13 -18 1 -66 -8 -30 -22 -120 -31 -200 -8 -80 -18 -161 -21
-180 l-6 -35 -17 45 c-24 64 -37 52 -33 -33 l4 -72 -56 60 c-73 78 -90 66 -41
-31 60 -116 77 -234 79 -521 1 -158 -3 -246 -10 -253 -7 -7 -20 0 -44 25 -19
19 -38 35 -42 35 -16 0 -8 -36 16 -70 41 -62 49 -102 36 -181 -15 -87 -23 -82
-87 45 -25 49 -55 106 -67 125 -22 34 -23 43 -18 199 7 238 -28 669 -78 969
-34 199 -48 259 -60 247 -4 -5 -10 -139 -13 -299 -4 -159 -13 -344 -21 -410
-30 -246 -39 -305 -46 -305 -4 0 -15 18 -25 40 -18 39 -35 53 -35 28 0 -7 9
-50 20 -96 23 -97 25 -125 8 -120 -7 3 -71 71 -141 153 l-128 148 2 141 c1 78
8 191 15 251 13 113 50 335 60 369 4 11 2 16 -4 12 -20 -12 -146 -396 -177
-539 -3 -15 -10 -25 -14 -22 -5 3 -8 13 -6 23 9 43 54 378 65 477 6 61 14 130
17 155 9 72 -4 43 -48 -106 -22 -76 -63 -209 -92 -294 l-52 -155 -5 65 c-4 47
-20 98 -57 185 -53 125 -74 189 -75 234 -1 17 29 72 86 158 47 72 86 138 86
147 0 8 -12 40 -27 71 -25 51 -28 54 -45 38 -10 -9 -18 -19 -18 -23 0 -12
-102 -202 -106 -198 -2 3 -10 35 -18 72 l-14 67 59 77 c32 42 82 106 111 141
l52 64 -29 22 -28 23 39 59 c50 75 81 155 100 250 8 43 20 81 27 85 17 11 245
10 251 -1 7 -10 5 -18 -79 -326 -31 -115 -62 -216 -69 -222 -9 -10 -27 -4 -84
32 -40 25 -78 45 -85 45 -18 0 -82 -109 -71 -119 14 -14 272 -180 304 -196
l29 -15 20 67 c51 172 92 347 87 368 -3 13 -9 31 -12 42 -5 17 -5 17 6 1 18
-29 28 -21 39 29 6 27 26 102 44 168 l32 120 34 3 c18 2 38 -1 44 -7 6 -6 12
-44 12 -84 0 -39 2 -193 3 -340 2 -301 10 -327 50 -171 13 49 38 144 57 212
l35 123 -11 207 c-7 114 -16 210 -22 213 -18 12 -212 21 -407 19 -230 -3 -216
-4 -224 15 -11 29 8 48 82 81 438 200 853 630 1147 1189 32 61 63 116 69 124
7 9 13 128 16 344 l5 330 85 44 c109 58 164 98 240 180 135 144 186 354 129
532 -22 68 -81 169 -135 232 -34 39 -54 72 -54 87 0 14 20 88 44 166 25 78 54
182 66 231 11 50 24 106 29 125 10 40 35 208 52 355 29 254 -16 626 -105 871
-14 39 -26 80 -26 91 0 13 64 67 215 178 118 88 215 165 215 172 0 14 -33 34
-205 125 -232 123 -390 193 -570 253 -88 29 -316 83 -415 99 -223 35 -538 13
-722 -50 -39 -13 -75 -24 -80 -24 -16 0 -7 22 35 93 47 78 64 113 97 196 24
62 21 67 -45 75 -22 3 -80 10 -130 16 -91 12 -519 21 -610 14z m1102 -1314
c95 -23 197 -71 286 -136 115 -84 203 -196 290 -369 l45 -91 7 -1381 8 -1381
-63 -118 c-372 -704 -916 -1164 -1475 -1250 -196 -30 -428 -13 -617 46 -468
145 -902 533 -1274 1137 l-84 137 0 1365 c0 1290 1 1370 19 1436 49 190 161
359 302 456 78 52 156 86 274 116 147 37 239 25 565 -73 404 -121 643 -135
936 -54 77 22 219 68 384 125 168 59 264 67 397 35z m963 -1817 c56 -57 87
-99 116 -157 37 -76 39 -84 39 -175 0 -88 -3 -102 -34 -165 -42 -86 -142 -189
-227 -234 -34 -18 -65 -32 -68 -32 -3 0 -5 185 -4 412 l3 412 25 7 c60 17 72
11 150 -68z m-3990 -354 c0 -424 6 -401 -93 -324 -71 56 -139 147 -163 218
-40 114 -18 251 57 369 28 43 44 56 104 83 38 18 76 30 83 28 9 -4 12 -88 12
-374z m2344 -2784 c-1 -105 -5 -129 -29 -190 -27 -72 -56 -117 -103 -160 -78
-72 -267 -128 -354 -105 -128 35 -214 114 -263 243 -10 26 -22 44 -26 40 -11
-11 -49 -166 -49 -198 0 -14 5 -36 11 -48 10 -18 8 -23 -10 -35 -25 -17 -28
-61 -7 -136 8 -28 27 -94 41 -146 59 -210 86 -288 106 -306 33 -30 39 -48 28
-85 -13 -41 4 -119 25 -119 9 0 13 -24 14 -92 1 -91 17 -339 27 -428 4 -35 3
-41 -5 -27 -34 55 -38 -18 -15 -312 10 -121 12 -198 6 -204 -6 -6 -25 22 -51
74 -114 227 -151 349 -116 378 23 19 20 34 -5 21 -24 -13 -23 -15 -35 28 -13
49 -29 40 -32 -20 -3 -45 -9 -59 -45 -99 -23 -26 -71 -81 -106 -123 -35 -42
-67 -76 -71 -76 -4 0 -12 49 -18 108 -9 79 -9 123 -1 167 8 43 8 60 0 63 -29
10 7 246 61 400 57 163 109 253 206 357 71 76 78 85 59 85 -19 0 -217 -219
-270 -298 -91 -135 -167 -323 -207 -513 -17 -77 -24 -150 -27 -279 -4 -159 -7
-181 -31 -240 -14 -36 -42 -121 -62 -189 l-37 -124 -7 59 c-3 32 -17 113 -30
179 -13 66 -32 163 -41 216 -25 147 -44 159 -57 36 -4 -40 -7 -134 -7 -209 -1
-89 -5 -138 -11 -138 -6 0 -17 -15 -25 -33 -13 -30 -14 -30 -15 -7 0 27 13
230 35 553 8 114 15 226 15 249 0 90 -31 8 -135 -357 -42 -149 -78 -276 -81
-284 -13 -40 -12 16 2 205 19 249 13 553 -11 591 -8 12 -15 39 -15 60 0 64
-12 113 -26 113 -8 0 -14 2 -14 3 0 23 85 456 145 742 14 66 35 163 46 215 10
52 26 120 35 150 11 38 15 76 11 123 -6 65 -5 67 18 67 22 0 23 -3 19 -37 -3
-21 -7 -46 -9 -56 -2 -10 7 -55 20 -100 l23 -82 1 137 c1 123 3 138 20 147 13
7 23 7 33 -2 10 -7 54 -163 113 -397 53 -212 101 -389 106 -394 10 -11 127 47
168 84 36 32 108 210 85 210 -3 0 -33 -16 -65 -35 -53 -31 -99 -45 -99 -30 0
3 -30 122 -66 265 -37 142 -64 266 -60 275 5 13 28 15 168 13 l162 -3 18 -80
c37 -176 48 -183 102 -60 l37 86 -7 111 -7 111 34 -6 c91 -17 271 -37 334 -37
88 0 286 25 346 44 84 27 84 28 83 -109z m-180 -995 c7 -198 -2 -598 -14 -605
-12 -8 -20 208 -20 508 1 228 4 287 14 287 10 0 15 -44 20 -190z m-118 -126
c-26 -194 -56 -477 -77 -712 -8 -85 -16 -129 -22 -123 -12 12 -66 235 -67 275
0 16 -9 63 -20 105 -55 217 -68 281 -56 289 13 8 149 193 216 294 25 37 46 65
48 64 2 -2 -8 -89 -22 -192z m-2406 -30 c0 -19 -4 -34 -10 -34 -5 0 -10 13
-10 29 0 16 -3 38 -7 48 -6 16 -5 16 10 4 10 -8 17 -28 17 -47z m815 -184 c21
-75 24 -80 54 -83 14 -1 20 -7 17 -17 -2 -8 -7 -37 -11 -65 -8 -60 -74 -337
-82 -345 -3 -3 -2 64 1 148 5 106 4 152 -3 152 -7 0 -11 50 -11 153 1 160 5
168 35 57z m4431 -31 c6 -11 25 -243 40 -488 l7 -125 -42 35 c-23 18 -58 43
-76 55 -65 39 -86 65 -80 99 25 124 72 296 91 334 12 25 26 58 29 74 8 28 19
35 31 16z m-2556 -189 c7 -16 19 -30 27 -30 15 0 14 -4 -12 -80 l-12 -35 -6
30 c-3 17 -9 50 -12 75 -4 25 -9 53 -12 64 -8 29 13 10 27 -24z m2739 -150 c0
-8 -7 -1 -14 15 -8 17 -14 37 -14 45 0 8 7 2 14 -15 8 -16 14 -37 14 -45z
m516 -184 c21 -69 40 -150 91 -366 5 -24 5 -24 -15 -6 -12 11 -21 17 -21 14 0
-2 14 -47 31 -99 52 -161 58 -236 9 -112 -13 32 -43 97 -66 145 l-43 86 -11
174 c-5 95 -13 198 -16 228 -7 73 9 48 41 -64z m532 77 c-3 -10 -5 -4 -5 12 0
17 2 24 5 18 2 -7 2 -21 0 -30z m-1322 -281 c32 -104 35 -86 -35 -211 l-30
-54 -16 39 c-8 22 -24 58 -35 82 -20 44 -20 44 1 142 11 54 20 108 20 119 0
11 5 32 11 48 l11 28 23 -50 c12 -27 35 -92 50 -143z m-3305 -241 c-6 -134
-13 -248 -17 -254 -3 -5 -9 -3 -14 4 -12 20 -20 6 -25 -43 -12 -101 -16 -96
-60 76 -23 93 -48 200 -55 237 l-12 67 46 94 c25 51 68 120 94 153 l48 60 3
-75 c2 -41 -2 -185 -8 -319z m2328 254 c26 -63 28 -78 23 -145 l-6 -75 -28
130 c-15 72 -30 141 -33 155 -9 43 13 10 44 -65z m1446 -38 l-8 -52 -7 50 c-4
28 -7 64 -8 80 l0 30 15 -28 c12 -22 14 -41 8 -80z m-2631 68 c4 -8 2 -17 -3
-20 -6 -4 -10 3 -10 14 0 25 6 27 13 6z m4064 -27 c-3 -8 -6 -5 -6 6 -1 11 2
17 5 13 3 -3 4 -12 1 -19z m-3955 -150 c110 -186 105 -168 73 -297 l-27 -111
-27 21 c-64 51 -81 83 -97 190 -15 100 -11 309 5 309 4 0 36 -51 73 -112z
m-3252 9 c-1 -12 -7 -35 -15 -52 l-13 -30 -1 26 c-1 41 10 89 20 83 5 -3 9
-15 9 -27z m5360 -74 c13 -48 51 -275 46 -280 -6 -7 -116 134 -116 149 0 22
48 168 56 168 2 0 8 -17 14 -37z m-5949 -80 c-17 -109 -19 -113 -20 -71 0 20
-6 40 -11 43 -11 7 -8 24 17 83 22 52 27 31 14 -55z m2826 -423 l-3 -25 -12
28 c-7 16 -12 45 -11 65 l0 37 15 -40 c8 -22 13 -51 11 -65z m1018 30 c3 -5 1
-10 -4 -10 -6 0 -11 5 -11 10 0 6 2 10 4 10 3 0 8 -4 11 -10z m-1026 -660 c1
-20 -1 -22 -9 -10 -5 8 -9 31 -9 50 1 32 2 33 9 10 4 -14 8 -36 9 -50z"/>
<path d="M3971 7574 c-139 -30 -319 -97 -336 -124 -3 -5 6 -33 21 -60 22 -41
32 -50 54 -50 14 0 30 4 36 9 13 12 141 57 221 78 50 12 114 17 237 18 l170 1
6 24 c4 14 10 42 14 62 7 36 6 37 -31 47 -54 15 -315 12 -392 -5z"/>
<path d="M5761 7579 c-33 -10 -33 -10 -26 -57 12 -87 -3 -80 178 -80 144 1
173 -2 266 -26 58 -15 132 -38 165 -52 34 -14 69 -27 79 -27 22 -2 73 84 64
107 -12 31 -207 106 -340 131 -89 17 -331 19 -386 4z"/>
<path d="M4077 7279 c-144 -24 -187 -234 -65 -320 49 -35 151 -39 197 -7 95
65 115 184 45 268 -44 52 -104 72 -177 59z m67 -161 c14 -22 -12 -52 -37 -42
-17 6 -23 44 -10 58 11 11 35 3 47 -16z"/>
<path d="M5954 7280 c-47 -10 -87 -38 -114 -78 -35 -51 -35 -144 0 -195 72
-104 230 -104 300 1 35 53 35 144 0 195 -41 59 -119 92 -186 77z m61 -170 c0
-20 -5 -25 -25 -25 -28 0 -41 32 -18 46 23 15 43 5 43 -21z"/>
<path d="M4752 5965 c-26 -33 -45 -82 -39 -99 5 -14 105 -55 182 -75 51 -14
214 -14 291 0 79 14 210 57 224 74 9 10 6 25 -10 64 -12 27 -27 52 -34 54 -7
3 -37 -4 -67 -14 -76 -28 -181 -49 -239 -49 -63 0 -180 25 -238 50 -24 11 -46
20 -48 20 -1 0 -11 -11 -22 -25z"/>
<path d="M4360 5381 c-27 -51 -4 -244 41 -340 41 -89 88 -143 176 -202 133
-90 270 -123 508 -122 187 1 269 18 403 84 182 89 275 242 297 492 5 55 3 82
-5 92 -11 13 -111 15 -711 15 -680 0 -699 -1 -709 -19z m1263 -175 c-4 -56
-53 -154 -101 -202 -46 -46 -138 -98 -209 -119 -87 -26 -256 -37 -361 -25
-253 31 -398 131 -442 306 -23 92 -74 85 557 82 l558 -3 -2 -39z"/>
<path d="M4690 2118 l0 -133 20 25 c16 19 19 35 15 70 -2 25 -7 73 -11 108
-11 107 -24 68 -24 -70z"/>
<path d="M6306 3764 c18 -97 30 -129 49 -129 14 0 22 13 32 50 7 28 12 64 11
80 -3 28 -6 30 -51 33 l-48 3 7 -37z"/>
</g>
</svg>
